<?xml version="1.0" encoding="UTF-8"?>
<svg version="1.1" xmlns="http://www.w3.org/2000/svg" width="450" height="144">
<path d="M0 0 C6.74895462 2.24965154 6.74895462 2.24965154 9.8203125 3.72070312 C10.51033859 4.04896591 11.20036469 4.3772287 11.91130066 4.71543884 C12.64182144 5.06715652 13.37234222 5.41887421 14.125 5.78125 C15.28972588 6.33644066 15.28972588 6.33644066 16.47798157 6.90284729 C18.13311171 7.69202445 19.78753893 8.48267728 21.4413147 9.27468872 C25.72173819 11.32451141 30.00708002 13.3639778 34.29296875 15.40234375 C35.55393623 16.00229408 35.55393623 16.00229408 36.84037781 16.61436462 C44.52310643 20.26256929 52.25063808 23.8038497 60.01757812 27.26953125 C65.90547563 29.90547563 65.90547563 29.90547563 67 31 C67.0942174 33.11681317 67.11742761 35.23680758 67.11352539 37.35571289 C67.11367142 38.01910172 67.11381744 38.68249054 67.1139679 39.36598206 C67.11326881 41.56823956 67.10547665 43.77041345 67.09765625 45.97265625 C67.09579206 47.49580336 67.09436816 49.01895107 67.09336853 50.542099 C67.08954346 54.55837651 67.07971328 58.57461808 67.06866455 62.59088135 C67.05845019 66.68623366 67.05387086 70.78159176 67.04882812 74.87695312 C67.038091 82.91798528 67.02101472 90.95898817 67 99 C37.64734944 113.17268425 37.64734944 113.17268425 25.0625 119 C23.94939453 119.51949219 22.83628906 120.03898437 21.68945312 120.57421875 C20.58666016 121.08597656 19.48386719 121.59773438 18.34765625 122.125 C16.94012085 122.77855469 16.94012085 122.77855469 15.50415039 123.4453125 C10.37534721 125.72081021 5.17931807 127.84195081 0 130 C-0.33 120.1 -0.66 110.2 -1 100 C-8.15204611 103.28689335 -8.15204611 103.28689335 -15.30029297 106.58203125 C-16.18861816 106.98808594 -17.07694336 107.39414063 -17.9921875 107.8125 C-19.35899658 108.44091797 -19.35899658 108.44091797 -20.75341797 109.08203125 C-23 110 -23 110 -25 110 C-25.33 101.75 -25.66 93.5 -26 85 C-28.124375 85.99 -30.24875 86.98 -32.4375 88 C-38.875 91 -38.875 91 -40 91 C-40 73.84 -40 56.68 -40 39 C-34 41 -34 41 -25 45 C-25 36.75 -25 28.5 -25 20 C-21.14564648 20.7708707 -18.75985749 21.42210965 -15.35546875 23.06640625 C-14.59645264 23.42935791 -13.83743652 23.79230957 -13.05541992 24.16625977 C-12.10900635 24.62701904 -11.16259277 25.08777832 -10.1875 25.5625 C-7.155625 27.026875 -4.12375 28.49125 -1 30 C-0.67 20.1 -0.34 10.2 0 0 Z " fill="#148DE2" transform="translate(47,7)"/>
<path d="M0 0 C3.81727866 0.76345573 6.15694392 1.38117227 9.51953125 3.00390625 C10.36966797 3.41125 11.21980469 3.81859375 12.09570312 4.23828125 C12.99224609 4.67527344 13.88878906 5.11226562 14.8125 5.5625 C15.73869141 6.00851563 16.66488281 6.45453125 17.61914062 6.9140625 C24.09025402 10.04050545 30.53288955 13.22449347 36.93676758 16.48657227 C40.25975426 18.17200256 43.52738568 19.61095427 47 21 C47 36.84 47 52.68 47 69 C40.4 71.97 33.8 74.94 27 78 C20.71609212 81.11778129 20.71609212 81.11778129 14.44921875 84.26953125 C3.02708804 90 3.02708804 90 0 90 C-0.33 81.75 -0.66 73.5 -1 65 C-3.124375 65.99 -5.24875 66.98 -7.4375 68 C-13.875 71 -13.875 71 -15 71 C-15 53.84 -15 36.68 -15 19 C-9 21 -9 21 0 25 C0 16.75 0 8.5 0 0 Z " fill="#D8096F" transform="translate(22,27)"/>
<path d="M0 0 C5.28 0 10.56 0 16 0 C17.17349137 3.74798773 18.33902858 7.49813485 19.5 11.25 C19.83386719 12.31347656 20.16773438 13.37695312 20.51171875 14.47265625 C20.82753906 15.49746094 21.14335937 16.52226563 21.46875 17.578125 C21.90864258 18.99206543 21.90864258 18.99206543 22.35742188 20.43457031 C23 23 23 23 23 27 C25.84887621 24.51643172 27.20170026 21.84357835 28.828125 18.45703125 C37.53527073 1.30495675 37.53527073 1.30495675 42.12207031 -1.12353516 C46.6930336 -2.10481877 50.49002148 -1.09956405 55 0 C54.44349452 11.20207152 52.99286522 22.22200649 51.41601562 33.31787109 C50.99499389 36.28528366 50.58297728 39.25385483 50.171875 42.22265625 C49.90677506 44.11205291 49.64116923 46.00137868 49.375 47.890625 C49.25205566 48.77695618 49.12911133 49.66328735 49.00244141 50.57647705 C48.88562012 51.39203064 48.76879883 52.20758423 48.6484375 53.04785156 C48.54708496 53.76507385 48.44573242 54.48229614 48.34130859 55.22125244 C48 57 48 57 47 59 C42.05 59 37.1 59 32 59 C32.49750525 51.60849343 33.08045627 44.35634987 34 37 C31.36 41.62 28.72 46.24 26 51 C22.37 51 18.74 51 15 51 C13.68 46.05 12.36 41.1 11 36 C10.01 43.59 9.02 51.18 8 59 C2.72 59 -2.56 59 -8 59 C-7.18300248 52.84753982 -6.36509228 46.69520187 -5.54638672 40.54296875 C-5.26880056 38.45608692 -4.9914509 36.36917361 -4.71435547 34.28222656 C-3.19582922 22.84668235 -1.65849191 11.416221 0 0 Z " fill="#313131" transform="translate(235,42)"/>
<path d="M0 0 C3.08122564 2.7768154 5.62538244 5.75433433 6 10 C6.23887931 16.71944394 5.38952464 23.00895395 4.25 29.625 C4.09273437 30.635625 3.93546875 31.64625 3.7734375 32.6875 C2.3365367 41.1099493 -0.30902173 46.2495758 -7.03125 51.67578125 C-13.98920562 56.35583473 -21.83073089 56.81358342 -30 56 C-36.10847423 54.68007843 -41.68412642 51.58841845 -45.14453125 46.2265625 C-49.04672667 36.07016345 -45.56104436 18.0309319 -41.25 8.3125 C-37.67413185 2.29424643 -32.34885035 -1.61569144 -25.65234375 -3.52734375 C-16.81113198 -5.10287633 -7.61246258 -5.26892315 0 0 Z M-27 13 C-28.84100697 18.33139192 -29.65751684 23.66203176 -30.3125 29.25 C-30.42400391 30.05179688 -30.53550781 30.85359375 -30.65039062 31.6796875 C-31.33135397 35.92327652 -31.33135397 35.92327652 -29.74291992 39.69433594 C-26.8232712 41.88151641 -23.54012295 42.11376577 -20 42 C-15.7803826 40.52187694 -15.7803826 40.52187694 -12.90625 37.2734375 C-10.00260267 29.98928774 -9.24832864 20.76727075 -10 13 C-11.36375359 10.72685588 -11.36375359 10.72685588 -14 10 C-19.17419379 9.50721964 -22.97794985 9.33283662 -27 13 Z " fill="#303030" transform="translate(220,46)"/>
<path d="M0 0 C3.25624264 3.09164137 6.76545858 6.51476307 7.203125 11.15234375 C7.3156765 17.8397788 6.68724687 24.27679782 5.6875 30.875 C5.56987305 31.68316162 5.45224609 32.49132324 5.33105469 33.32397461 C3.87739462 42.2922393 0.39542096 47.65565797 -6.875 53.1875 C-14.3230878 57.50739092 -22.98130478 58.35618626 -31.375 56.46484375 C-36.76846509 54.59551778 -40.57882333 52.05825587 -43.8125 47.375 C-46.61581052 39.40769642 -44.73920541 30.51726535 -43.375 22.375 C-43.16423828 20.89773437 -43.16423828 20.89773437 -42.94921875 19.390625 C-41.64530204 11.56712473 -38.97487064 6.0293917 -32.5859375 1.16015625 C-31.85632813 0.79792969 -31.12671875 0.43570313 -30.375 0.0625 C-29.64023437 -0.31777344 -28.90546875 -0.69804688 -28.1484375 -1.08984375 C-20.02418521 -4.53157245 -7.56280989 -5.05357134 0 0 Z M-26 15 C-26.86111227 17.68913899 -27.4136683 19.93562522 -27.8125 22.6875 C-27.92722656 23.39994873 -28.04195313 24.11239746 -28.16015625 24.84643555 C-29.32161269 32.40208995 -29.32161269 32.40208995 -29 40 C-27.10994392 42.36809029 -27.10994392 42.36809029 -24 43 C-19.22568273 43 -17.27049072 42.90695239 -13.37890625 40.12890625 C-9.97857643 35.65655127 -9.59849189 31.42194626 -8.9375 25.9375 C-8.78345703 24.94427734 -8.62941406 23.95105469 -8.47070312 22.92773438 C-7.62613349 17.36719006 -7.62613349 17.36719006 -9.6640625 12.34765625 C-12.17591545 10.89851032 -13.55701715 10.46006263 -16.4375 10.5 C-17.17871094 10.4896875 -17.91992188 10.479375 -18.68359375 10.46875 C-22.0499201 11.24079112 -23.62105815 12.49732124 -26 15 Z " fill="#303030" transform="translate(436,45)"/>
<path d="M0 0 C5.94 0 11.88 0 18 0 C20.40681178 5.97553269 22.76262045 11.95907521 25 18 C27.2956685 15.31497803 29.09582032 12.81507979 30.7265625 9.66796875 C34.72083605 2.3451339 34.72083605 2.3451339 38 0 C43.86712584 -1.6014422 50.05026537 -0.75093738 56 0 C51.30846619 7.64852166 46.25423304 14.97679666 41.00097656 22.24780273 C40.49791992 22.94977783 39.99486328 23.65175293 39.4765625 24.375 C39.02361816 25.00148438 38.57067383 25.62796875 38.10400391 26.2734375 C36.82408584 28.12000131 36.82408584 28.12000131 36 31 C36.8904341 33.81741322 36.8904341 33.81741322 38.30859375 36.91015625 C38.80810547 38.06451172 39.30761719 39.21886719 39.82226562 40.40820312 C40.62180664 42.21708008 40.62180664 42.21708008 41.4375 44.0625 C42.48277071 46.4471324 43.52136623 48.83449662 44.55859375 51.22265625 C45.02579834 52.28234619 45.49300293 53.34203613 45.97436523 54.43383789 C47 57 47 57 47 59 C41.06 59 35.12 59 29 59 C26.69 53.06 24.38 47.12 22 41 C18.79606993 46.17368213 18.79606993 46.17368213 15.59814453 51.35107422 C15.19708496 51.9957666 14.79602539 52.64045898 14.3828125 53.3046875 C13.97434082 53.96452637 13.56586914 54.62436523 13.14501953 55.30419922 C12 57 12 57 10 59 C8.12060547 59.22705078 8.12060547 59.22705078 5.8671875 59.1953125 C5.06152344 59.18886719 4.25585938 59.18242188 3.42578125 59.17578125 C2.16314453 59.15064453 2.16314453 59.15064453 0.875 59.125 C-0.39923828 59.11146484 -0.39923828 59.11146484 -1.69921875 59.09765625 C-3.79959884 59.07405647 -5.89983444 59.03818483 -8 59 C-4.0211874 52.91079407 0.12029623 46.94351118 4.3125 41 C4.85229492 40.23373291 5.39208984 39.46746582 5.94824219 38.67797852 C6.71056152 37.59987915 6.71056152 37.59987915 7.48828125 36.5 C8.17724487 35.52546875 8.17724487 35.52546875 8.88012695 34.53125 C10 33 10 33 11 32 C10.68635847 24.86718449 7.63261091 18.58340796 4.9375 12.0625 C4.46505859 10.90169922 3.99261719 9.74089844 3.50585938 8.54492188 C2.3442673 5.69374133 1.17307923 2.84647357 0 0 Z " fill="#313131" transform="translate(341,42)"/>
<path d="M0 0 C3.8124338 -0.05872928 7.62474906 -0.09383916 11.4375 -0.125 C12.50677734 -0.14175781 13.57605469 -0.15851562 14.67773438 -0.17578125 C31.44370686 -0.27832542 31.44370686 -0.27832542 36.9375 4.8125 C37.48277344 5.29332031 38.02804687 5.77414063 38.58984375 6.26953125 C43.2142307 11.94433296 42.66205195 19.07778599 42 26 C40.34519247 32.12377877 36.35188752 36.67886822 31 40 C26.416944 41.88560018 22.02978461 42.39687048 17.125 42.625 C16.43664062 42.66367188 15.74828125 42.70234375 15.0390625 42.7421875 C13.35976754 42.83548166 11.67992233 42.91878238 10 43 C9.86722656 43.98742187 9.73445313 44.97484375 9.59765625 45.9921875 C9.42105469 47.27351563 9.24445313 48.55484375 9.0625 49.875 C8.80146484 51.78925781 8.80146484 51.78925781 8.53515625 53.7421875 C8 57 8 57 7 59 C2.05 59 -2.9 59 -8 59 C-7.3394587 48.18363616 -5.93670707 37.53661788 -4.41601562 26.8125 C-3.99604401 23.84706664 -3.58354986 20.88065788 -3.171875 17.9140625 C-2.90668669 16.0233762 -2.64107732 14.1327489 -2.375 12.2421875 C-2.25205566 11.35788055 -2.12911133 10.47357361 -2.00244141 9.56246948 C-1.82720947 8.33441086 -1.82720947 8.33441086 -1.6484375 7.08154297 C-1.54708496 6.36352509 -1.44573242 5.6455072 -1.34130859 4.9057312 C-1 3 -1 3 0 0 Z M13 15 C12.34 19.62 11.68 24.24 11 29 C18.29104437 29.41455046 18.29104437 29.41455046 25 27 C27.21532902 24.28118711 26.99136912 22.87269457 26.75 19.3125 C26.5025 18.219375 26.255 17.12625 26 16 C22.14854957 14.07427479 17.19956748 14.95116782 13 15 Z " fill="#2F2F2F" transform="translate(299,42)"/>
<path d="M0 0 C3.65747171 2.74702811 5.50133247 5.79981753 7.375 9.9375 C7.375 10.5975 7.375 11.2575 7.375 11.9375 C3.085 13.5875 -1.205 15.2375 -5.625 16.9375 C-6.12 15.4525 -6.12 15.4525 -6.625 13.9375 C-10.71335757 12.57471414 -14.54964186 12.37845519 -18.7421875 13.5078125 C-21.72598889 15.77352061 -21.6878066 18.39266643 -22.3125 22 C-22.43133545 22.67450195 -22.5501709 23.34900391 -22.67260742 24.04394531 C-23.01019574 26.00510556 -23.31821481 27.97128581 -23.625 29.9375 C-23.86089844 31.36642578 -23.86089844 31.36642578 -24.1015625 32.82421875 C-24.81700586 37.6522824 -24.81700586 37.6522824 -22.625 41.9375 C-18.29149271 43.18940211 -15.594752 43.08331189 -11.625 40.9375 C-10.635 39.9475 -9.645 38.9575 -8.625 37.9375 C-4.665 39.9175 -0.705 41.8975 3.375 43.9375 C-0.28731169 49.9944001 -4.71753044 54.79726791 -11.51171875 57.43359375 C-18.12365234 59.01019159 -25.59884059 58.78615064 -31.87109375 56.0625 C-35.69453303 53.61004897 -38.60436231 49.97877538 -40.625 45.9375 C-41.31431033 38.63346167 -40.44142244 31.40695481 -39.375 24.1875 C-39.26575195 23.39609619 -39.15650391 22.60469238 -39.04394531 21.78930664 C-37.76644897 13.76807138 -35.04441994 7.2327413 -28.51953125 2.19140625 C-20.50110396 -3.11563532 -8.6308086 -4.89725657 0 0 Z " fill="#323232" transform="translate(166.625,44.0625)"/>
<path d="M0 0 C6.27 2.97 12.54 5.94 19 9 C19.99 9.33 20.98 9.66 22 10 C22 25.84 22 41.68 22 58 C15.4 60.97 8.8 63.94 2 67 C1.01 67.495 1.01 67.495 0 68 C0 45.56 0 23.12 0 0 Z " fill="#4E0474" transform="translate(47,38)"/>
<path d="M0 0 C3.765603 1.255201 6.87260254 2.3058145 10.3125 4.0625 C11.32763672 4.57490234 11.32763672 4.57490234 12.36328125 5.09765625 C14 6 14 6 15 7 C15.08861992 9.8116338 15.11522355 12.59858255 15.09765625 15.41015625 C15.0962413 16.25219101 15.09482635 17.09422577 15.09336853 17.96177673 C15.08775263 20.66205335 15.07519748 23.36224828 15.0625 26.0625 C15.05748705 27.88867068 15.05292379 29.71484266 15.04882812 31.54101562 C15.03777804 36.02737542 15.02050279 40.51367384 15 45 C12.68868934 46.16907584 10.37604377 47.33535892 8.0625 48.5 C7.40314453 48.83386719 6.74378906 49.16773438 6.06445312 49.51171875 C1.11328125 52 1.11328125 52 0 52 C0 34.84 0 17.68 0 0 Z " fill="#F7B90D" transform="translate(7,46)"/>
<path d="M0 0 C4.95 1.98 4.95 1.98 10 4 C10 12.91 10 21.82 10 31 C5.05 33.475 5.05 33.475 0 36 C0 24.12 0 12.24 0 0 Z " fill="#91004C" transform="translate(23,54)"/>
</svg>
